<?xml version="1.0" encoding="utf-8"?>
<!-- Generator: Adobe Illustrator 16.0.0, SVG Export Plug-In . SVG Version: 6.00 Build 0)  -->
<!DOCTYPE svg PUBLIC "-//W3C//DTD SVG 1.1//EN" "http://www.w3.org/Graphics/SVG/1.1/DTD/svg11.dtd">
<svg version="1.1" id="Layer_1" xmlns="http://www.w3.org/2000/svg" xmlns:xlink="http://www.w3.org/1999/xlink" x="0px" y="0px"
	 width="42px" height="42px" viewBox="0 0 42 42" enable-background="new 0 0 42 42" xml:space="preserve">
<g>
	<defs>
		<path id="SVGID_1_" d="M22,25c0,0.6-0.4,1-1,1h-6c-0.6,0-1-0.4-1-1s0.4-1,1-1h6C21.6,24,22,24.4,22,25z M10,25c0,1.1-0.9,2-2,2
			s-2-0.9-2-2s0.9-2,2-2S10,23.9,10,25z M14,11c0-0.6,0.4-1,1-1h10c0.6,0,1,0.4,1,1s-0.4,1-1,1H15C14.4,12,14,11.6,14,11z M10,11
			c0,1.1-0.9,2-2,2s-2-0.9-2-2s0.9-2,2-2S10,9.9,10,11z M10,18c0,1.1-0.9,2-2,2s-2-0.9-2-2s0.9-2,2-2S10,16.9,10,18z M14,18
			c0-0.6,0.4-1,1-1h14c0.6,0,1,0.4,1,1s-0.4,1-1,1H15C14.4,19,14,18.6,14,18z M38,33c0,0.6-0.4,1-1,1h-3v3c0,0.6-0.4,1-1,1
			s-1-0.4-1-1v-3h-3c-0.6,0-1-0.4-1-1s0.4-1,1-1h3v-3c0-0.6,0.4-1,1-1s1,0.4,1,1v3h3C37.6,32,38,32.4,38,33z M33,40
			c-3.9,0-7-3.1-7-7s3.1-7,7-7s7,3.1,7,7S36.9,40,33,40z M3,34c-0.6,0-1-0.4-1-1V3c0-0.6,0.4-1,1-1h30c0.6,0,1,0.4,1,1v21.1
			c-0.3,0-0.7-0.1-1-0.1c-5,0-9,4-9,9c0,0.3,0.1,0.7,0.1,1H3z M36,24.6V3c0-1.7-1.3-3-3-3H3C1.3,0,0,1.3,0,3v30c0,1.7,1.3,3,3,3
			h21.6c1.2,3.5,4.5,6,8.4,6c5,0,9-4,9-9C42,29.1,39.5,25.8,36,24.6z"/>
	</defs>
	<use xlink:href="#SVGID_1_"  overflow="visible" fill="#878787"/>
	<clipPath id="SVGID_2_">
		<use xlink:href="#SVGID_1_"  overflow="visible"/>
	</clipPath>
	<rect x="-5" y="-5" clip-path="url(#SVGID_2_)" fill="#878787" width="52" height="52"/>
</g>
</svg>
