<?xml version="1.0" encoding="UTF-8"?>
<svg width="143px" height="143px" viewBox="0 0 143 143" version="1.1" xmlns="http://www.w3.org/2000/svg" xmlns:xlink="http://www.w3.org/1999/xlink">
    <!-- Generator: Sketch 49 (51002) - http://www.bohemiancoding.com/sketch -->
    <title>noun_410377_cc</title>
    <desc>Created with Sketch.</desc>
    <defs>
        <path d="M0,0 L143,0 L143,143 L0,143 L0,0 Z" id="path-1"></path>
        <mask id="mask-2" maskContentUnits="userSpaceOnUse" maskUnits="objectBoundingBox" x="0" y="0" width="143" height="143" fill="white">
            <use xlink:href="#path-1"></use>
        </mask>
    </defs>
    <g id="Page-1" stroke="none" stroke-width="1" fill="none" fill-rule="evenodd">
        <g id="Artboard-2-Copy" transform="translate(-26.000000, -22.000000)">
            <g id="noun_410377_cc" transform="translate(26.000000, 22.000000)">
                <use id="Rectangle-7" stroke="#8D9AB1" mask="url(#mask-2)" stroke-width="2" stroke-dasharray="5,4" xlink:href="#path-1"></use>
                <g id="Group" transform="translate(58.000000, 62.000000)" fill="#8D9AB1" fill-rule="nonzero">
                    <path d="M24.284,0.0409302326 L1.716,0.0409302326 C0.78,0.0409302326 0.0104,0.787906977 0.0104,1.71906977 L0.0104,20.2297674 C0.0104,21.1506977 0.78,21.907907 1.716,21.907907 L24.2944,21.907907 C25.2304,21.907907 26,21.1609302 26,20.2297674 L26,1.71906977 C25.9896,0.787906977 25.2304,0.0409302326 24.284,0.0409302326 Z M1.3208,1.71906977 C1.3208,1.50418605 1.4976,1.33023256 1.716,1.33023256 L24.2944,1.33023256 C24.5128,1.33023256 24.6896,1.50418605 24.6896,1.71906977 L24.6896,15.6353488 L23.1816,14.1413953 C22.6304,13.5888372 21.9752,13.1897674 21.2888,12.9748837 C20.0928,12.5860465 19.0216,12.6576744 17.7424,13.2 L16.6504,13.547907 C15.1736,13.8855814 14.0504,13.4148837 13.0936,12.0437209 L11.596,9.91534884 L11.5648,9.86418605 C10.7536,8.90232558 9.568,8.31906977 8.2992,8.24744186 C7.0304,8.18604651 5.7824,8.64651163 4.8672,9.52651163 L1.3312,13.107907 L1.3312,1.71906977 L1.3208,1.71906977 Z M24.6792,20.2297674 C24.6792,20.4446512 24.5024,20.6186047 24.284,20.6186047 L1.716,20.6186047 C1.4976,20.6186047 1.3208,20.4446512 1.3208,20.2297674 L1.3208,14.9497674 L5.7824,10.4269767 C6.4376,9.79255814 7.3008,9.47534884 8.216,9.52651163 C9.1208,9.57767442 9.9424,9.97674419 10.5248,10.652093 L12.0016,12.76 C13.2808,14.5813953 14.9448,15.2567442 16.9728,14.7860465 L18.1688,14.4176744 L18.2312,14.3972093 C19.2296,13.9776744 19.9992,13.9162791 20.8832,14.2027907 C21.372,14.3562791 21.84,14.6530233 22.2456,15.052093 L24.5544,17.3339535 C24.596,17.3748837 24.6376,17.4055814 24.6792,17.4362791 L24.6792,20.2297674 Z" id="Shape"></path>
                    <path d="M17.576,10.0586047 C15.8808,10.0586047 14.4976,8.69767442 14.4976,7.02976744 C14.4976,5.36186047 15.8808,4.00093023 17.576,4.00093023 C19.2712,4.00093023 20.6544,5.36186047 20.6544,7.02976744 C20.6544,8.69767442 19.2712,10.0586047 17.576,10.0586047 Z M17.576,5.30046512 C16.5984,5.30046512 15.808,6.07813953 15.808,7.04 C15.808,8.00186047 16.5984,8.77953488 17.576,8.77953488 C18.5536,8.77953488 19.344,8.00186047 19.344,7.04 C19.344,6.07813953 18.5536,5.30046512 17.576,5.30046512 Z" id="Shape"></path>
                </g>
            </g>
        </g>
    </g>
</svg>