<?xml version="1.0" encoding="UTF-8"?>
<svg width="129px" height="130px" viewBox="0 0 129 130" version="1.1" xmlns="http://www.w3.org/2000/svg" xmlns:xlink="http://www.w3.org/1999/xlink">
    <!-- Generator: Sketch 51.2 (57519) - http://www.bohemiancoding.com/sketch -->
    <title>noun_analytics_749930</title>
    <desc>Created with Sketch.</desc>
    <defs>
        <linearGradient x1="0%" y1="100%" x2="108.938419%" y2="-11.1268939%" id="linearGradient-1">
            <stop stop-color="#E3EDFA" offset="0%"></stop>
            <stop stop-color="#F5E3FA" offset="100%"></stop>
        </linearGradient>
        <path d="M121.106061,0.568181818 L1.89393939,0.568181818 C1.13636364,0.568181818 0.378787879,1.13636364 0.378787879,1.89393939 L0.378787879,121.106061 C0.378787879,121.863636 0.946969697,122.621212 1.89393939,122.621212 L121.106061,122.621212 C121.863636,122.621212 122.621212,122.05303 122.621212,121.106061 L122.621212,1.89393939 C122.621212,1.13636364 121.863636,0.568181818 121.106061,0.568181818 Z M120.780303,2.40909091 L120.780303,21.780303 L2.21969697,21.780303 L2.21969697,2.40909091 L120.780303,2.40909091 Z M2.21969697,120.780303 L2.21969697,23.6212121 L120.590909,23.6212121 L120.590909,120.780303 L2.21969697,120.780303 Z" id="path-2"></path>
        <filter x="-4.5%" y="-4.5%" width="112.3%" height="113.1%" filterUnits="objectBoundingBox" id="filter-3">
            <feMorphology radius="1" operator="dilate" in="SourceAlpha" result="shadowSpreadOuter1"></feMorphology>
            <feOffset dx="4" dy="5" in="shadowSpreadOuter1" result="shadowOffsetOuter1"></feOffset>
            <feColorMatrix values="0 0 0 0 0.273968466   0 0 0 0 0.455518876   0 0 0 0 0.734135842  0 0 0 0.116734601 0" type="matrix" in="shadowOffsetOuter1"></feColorMatrix>
        </filter>
    </defs>
    <g id="Page-1" stroke="none" stroke-width="1" fill="none" fill-rule="evenodd">
        <g id="noun_analytics_749930">
            <g id="No-cover-image">
                <rect id="Rectangle-4" fill="url(#linearGradient-1)" x="2" y="23" width="119" height="99"></rect>
                <g id="Group" fill-rule="nonzero">
                    <g id="Shape">
                        <use fill="black" fill-opacity="1" filter="url(#filter-3)" xlink:href="#path-2"></use>
                        <use fill="#8995A9" xlink:href="#path-2"></use>
                    </g>
                    <path d="M46.7272727,17.1818182 C49.5681818,17.1818182 51.8409091,14.9090909 51.8409091,11.8787879 C51.8409091,8.84848485 49.5681818,6.57575758 46.7272727,6.57575758 C43.8863636,6.57575758 41.6136364,8.84848485 41.6136364,11.8787879 C41.6136364,14.9090909 43.8863636,17.1818182 46.7272727,17.1818182 Z M46.7272727,8.49621212 C48.5486597,8.49621212 49.8496503,10.0574009 49.8496503,11.8787879 C49.8496503,13.7001748 48.2884615,15.2613636 46.7272727,15.2613636 C44.9058858,15.2613636 43.6048951,13.7001748 43.6048951,11.8787879 C43.6048951,10.0574009 44.9058858,8.49621212 46.7272727,8.49621212 Z" id="Shape" fill="#A4B1C8"></path>
                    <path d="M30.6287879,17.1818182 C33.469697,17.1818182 35.7424242,14.9090909 35.7424242,11.8787879 C35.7424242,8.84848485 33.469697,6.57575758 30.6287879,6.57575758 C27.7878788,6.57575758 25.5151515,8.84848485 25.5151515,11.8787879 C25.5151515,14.9090909 27.7878788,17.1818182 30.6287879,17.1818182 Z M30.6287879,8.49621212 C32.4501748,8.49621212 33.7511655,10.0574009 33.7511655,11.8787879 C33.7511655,13.7001748 32.1899767,15.2613636 30.6287879,15.2613636 C29.0675991,15.2613636 27.5064103,13.7001748 27.5064103,11.8787879 C27.5064103,10.0574009 28.8074009,8.49621212 30.6287879,8.49621212 Z" id="Shape" fill="#A4B1C8"></path>
                    <path d="M14.3409091,17.1818182 C17.1818182,17.1818182 19.4545455,14.9090909 19.4545455,11.8787879 C19.4545455,8.84848485 17.1818182,6.57575758 14.3409091,6.57575758 C11.5,6.57575758 9.22727273,9.03787879 9.22727273,11.8787879 C9.22727273,14.719697 11.5,17.1818182 14.3409091,17.1818182 Z M14.3409091,8.54261364 C16.1373106,8.54261364 17.4204545,10.0823864 17.4204545,11.8787879 C17.4204545,13.6751894 16.1373106,15.2149621 14.3409091,15.2149621 C12.5445076,15.2149621 11.2613636,13.6751894 11.2613636,11.8787879 C11.2613636,10.0823864 12.5445076,8.54261364 14.3409091,8.54261364 Z" id="Shape" fill="#A4B1C8"></path>
                    <path d="M59.6060606,13.2045455 L112.44697,13.2045455 C113.204545,13.2045455 113.962121,12.6363636 113.962121,11.6893939 C113.962121,10.7424242 113.204545,10.3636364 112.44697,10.3636364 L59.6060606,10.3636364 C58.8484848,10.3636364 58.0909091,10.9318182 58.0909091,11.8787879 C58.0909091,12.8257576 58.8484848,13.2045455 59.6060606,13.2045455 Z" id="Shape" fill="#A4B1C8"></path>
                </g>
                <rect id="Rectangle-2" fill="#5372AA" x="43" y="97" width="39" height="12" rx="2"></rect>
            </g>
            <g id="Group" transform="translate(31.000000, 38.000000)" fill="#545E6F" fill-rule="nonzero">
                <path d="M9.3,14.0690909 C9.49375,14.0690909 9.6390625,13.9245455 9.6390625,13.7318182 L9.6390625,9.15454545 C9.6390625,8.96181818 9.49375,8.81727273 9.3,8.81727273 C9.10625,8.81727273 8.9609375,8.96181818 8.9609375,9.15454545 L8.9609375,13.7318182 C8.9609375,13.9245455 9.10625,14.0690909 9.3,14.0690909 Z" id="Shape"></path>
                <path d="M9.3,17.8754545 C9.49375,17.8754545 9.6390625,17.7309091 9.6390625,17.5381818 L9.6390625,15.9 C9.6390625,15.7072727 9.49375,15.5627273 9.3,15.5627273 C9.10625,15.5627273 8.9609375,15.7072727 8.9609375,15.9 L8.9609375,17.5381818 C8.9609375,17.6827273 9.10625,17.8754545 9.3,17.8754545 Z" id="Shape"></path>
                <path d="M60.159375,33.2936364 C59.965625,33.2936364 59.8203125,33.4381818 59.8203125,33.6309091 L59.8203125,38.2081818 C59.8203125,38.4009091 59.965625,38.5454545 60.159375,38.5454545 C60.353125,38.5454545 60.4984375,38.4009091 60.4984375,38.2081818 L60.4984375,33.6309091 C60.4984375,33.4381818 60.353125,33.2936364 60.159375,33.2936364 Z" id="Shape"></path>
                <path d="M60.159375,39.9909091 C59.965625,39.9909091 59.8203125,40.1354545 59.8203125,40.3281818 L59.8203125,41.9663636 C59.8203125,42.1590909 59.965625,42.3036364 60.159375,42.3036364 C60.353125,42.3036364 60.4984375,42.1590909 60.4984375,41.9663636 L60.4984375,40.3281818 C60.4984375,40.1354545 60.353125,39.9909091 60.159375,39.9909091 Z" id="Shape"></path>
                <path d="M42.7703125,3.51727273 C43.7390625,3.51727273 44.5140625,2.74636364 44.5140625,1.78272727 C44.5140625,0.819090909 43.7390625,0.0481818182 42.7703125,0.0481818182 C41.8015625,0.0481818182 41.0265625,0.819090909 41.0265625,1.78272727 C40.978125,2.74636364 41.8015625,3.51727273 42.7703125,3.51727273 Z M42.7703125,0.722727273 C43.3515625,0.722727273 43.8359375,1.20454545 43.8359375,1.78272727 C43.8359375,2.36090909 43.3515625,2.84272727 42.7703125,2.84272727 C42.1890625,2.84272727 41.7046875,2.36090909 41.7046875,1.78272727 C41.7046875,1.20454545 42.1890625,0.722727273 42.7703125,0.722727273 Z" id="Shape"></path>
                <path d="M13.3203125,49.4827273 C12.3515625,49.4827273 11.5765625,50.2536364 11.5765625,51.2172727 C11.5765625,52.1809091 12.3515625,52.9518182 13.3203125,52.9518182 C14.2890625,52.9518182 15.0640625,52.1809091 15.0640625,51.2172727 C15.0640625,50.2536364 14.2890625,49.4827273 13.3203125,49.4827273 Z M13.3203125,52.2772727 C12.7390625,52.2772727 12.2546875,51.7954545 12.2546875,51.2172727 C12.2546875,50.6390909 12.7390625,50.1572727 13.3203125,50.1572727 C13.9015625,50.1572727 14.3859375,50.6390909 14.3859375,51.2172727 C14.3859375,51.7954545 13.853125,52.2772727 13.3203125,52.2772727 Z" id="Shape"></path>
                <path d="M18.01875,2.31272727 C18.01875,2.50545455 18.1640625,2.65 18.3578125,2.65 L24.0734375,2.65 C24.2671875,2.65 24.4125,2.50545455 24.4125,2.31272727 C24.4125,2.12 24.2671875,1.97545455 24.0734375,1.97545455 L18.3578125,1.97545455 C18.1640625,1.97545455 18.01875,2.12 18.01875,2.31272727 Z" id="Shape"></path>
                <path d="M14.628125,2.65 L16.46875,2.65 C16.6625,2.65 16.8078125,2.50545455 16.8078125,2.31272727 C16.8078125,2.12 16.6625,1.97545455 16.46875,1.97545455 L14.628125,1.97545455 C14.434375,1.97545455 14.2890625,2.12 14.2890625,2.31272727 C14.2890625,2.50545455 14.434375,2.65 14.628125,2.65 Z" id="Shape"></path>
                <path d="M14.628125,0.722727273 L18.6,0.722727273 C18.79375,0.722727273 18.9390625,0.578181818 18.9390625,0.385454545 C18.9390625,0.192727273 18.79375,0.0481818182 18.6,0.0481818182 L14.628125,0.0481818182 C14.434375,0.0481818182 14.2890625,0.192727273 14.2890625,0.385454545 C14.2890625,0.578181818 14.434375,0.722727273 14.628125,0.722727273 Z" id="Shape"></path>
                <path d="M20.34375,0.722727273 L21.6515625,0.722727273 C21.8453125,0.722727273 21.990625,0.578181818 21.990625,0.385454545 C21.990625,0.192727273 21.796875,0 21.603125,0 L20.34375,0 C20.15,0 20.0046875,0.144545455 20.0046875,0.337272727 C19.95625,0.578181818 20.15,0.722727273 20.34375,0.722727273 Z" id="Shape"></path>
                <path d="M51.5375,49.29 C51.5375,49.0972727 51.3921875,48.9527273 51.1984375,48.9527273 L45.4828125,48.9527273 C45.2890625,48.9527273 45.14375,49.0972727 45.14375,49.29 C45.14375,49.4827273 45.2890625,49.6272727 45.4828125,49.6272727 L51.1984375,49.6272727 C51.3921875,49.6272727 51.5375,49.4827273 51.5375,49.29 Z" id="Shape"></path>
                <path d="M54.928125,48.9527273 L53.0875,48.9527273 C52.89375,48.9527273 52.7484375,49.0972727 52.7484375,49.29 C52.7484375,49.4827273 52.89375,49.6272727 53.0875,49.6272727 L54.928125,49.6272727 C55.121875,49.6272727 55.2671875,49.4827273 55.2671875,49.29 C55.2671875,49.0972727 55.121875,48.9527273 54.928125,48.9527273 Z" id="Shape"></path>
                <path d="M54.928125,50.88 L50.95625,50.88 C50.7625,50.88 50.6171875,51.0245455 50.6171875,51.2172727 C50.6171875,51.41 50.7625,51.5545455 50.95625,51.5545455 L54.928125,51.5545455 C55.121875,51.5545455 55.2671875,51.41 55.2671875,51.2172727 C55.2671875,51.0245455 55.121875,50.88 54.928125,50.88 Z" id="Shape"></path>
                <path d="M49.2125,50.88 L47.953125,50.88 C47.759375,50.88 47.6140625,51.0245455 47.6140625,51.2172727 C47.6140625,51.41 47.759375,51.5545455 47.953125,51.5545455 L49.2609375,51.5545455 C49.4546875,51.5545455 49.6,51.41 49.6,51.2172727 C49.6,51.0245455 49.4546875,50.88 49.2125,50.88 Z" id="Shape"></path>
                <path d="M58.5125,11.1781818 C58.3671875,11.0336364 58.125,11.0336364 58.028125,11.1781818 C57.8828125,11.3227273 57.8828125,11.5636364 58.028125,11.66 L58.7546875,12.3827273 C58.803125,12.4309091 58.9,12.4790909 58.996875,12.4790909 C59.09375,12.4790909 59.190625,12.4309091 59.2390625,12.3827273 C59.384375,12.2381818 59.384375,11.9972727 59.2390625,11.9009091 L58.5125,11.1781818 Z" id="Shape"></path>
                <path d="M60.934375,13.5390909 C60.7890625,13.3945455 60.546875,13.3945455 60.45,13.5390909 C60.3046875,13.6836364 60.3046875,13.9245455 60.45,14.0209091 L61.1765625,14.7436364 C61.225,14.7918182 61.321875,14.84 61.41875,14.84 C61.515625,14.84 61.6125,14.7918182 61.6609375,14.7436364 C61.80625,14.5990909 61.80625,14.3581818 61.6609375,14.2618182 L60.934375,13.5390909 Z" id="Shape"></path>
                <path d="M58.7546875,13.5390909 L58.028125,14.2618182 C57.8828125,14.4063636 57.8828125,14.6472727 58.028125,14.7436364 C58.0765625,14.7918182 58.1734375,14.84 58.2703125,14.84 C58.3671875,14.84 58.4640625,14.7918182 58.5125,14.7436364 L59.2390625,14.0209091 C59.384375,13.8763636 59.384375,13.6354545 59.2390625,13.5390909 C59.1421875,13.3945455 58.9,13.3945455 58.7546875,13.5390909 Z" id="Shape"></path>
                <path d="M60.64375,12.5272727 C60.740625,12.5272727 60.8375,12.4790909 60.8859375,12.4309091 L61.6125,11.7081818 C61.7578125,11.5636364 61.7578125,11.3227273 61.6125,11.2263636 C61.4671875,11.0818182 61.225,11.0818182 61.128125,11.2263636 L60.4015625,11.9490909 C60.25625,12.0936364 60.25625,12.3345455 60.4015625,12.4309091 C60.4984375,12.4790909 60.5953125,12.5272727 60.64375,12.5272727 Z" id="Shape"></path>
                <path d="M25.1390625,48.6154545 C24.99375,48.4709091 24.7515625,48.4709091 24.6546875,48.6154545 C24.509375,48.76 24.509375,49.0009091 24.6546875,49.0972727 L25.38125,49.82 C25.4296875,49.8681818 25.5265625,49.9163636 25.6234375,49.9163636 C25.7203125,49.9163636 25.8171875,49.8681818 25.865625,49.82 C26.0109375,49.6754545 26.0109375,49.4345455 25.865625,49.3381818 L25.1390625,48.6154545 Z" id="Shape"></path>
                <path d="M27.5125,50.9763636 C27.3671875,50.8318182 27.125,50.8318182 27.028125,50.9763636 C26.8828125,51.1209091 26.8828125,51.3618182 27.028125,51.4581818 L27.7546875,52.1809091 C27.803125,52.2290909 27.9,52.2772727 27.996875,52.2772727 C28.09375,52.2772727 28.190625,52.2290909 28.2390625,52.1809091 C28.384375,52.0363636 28.384375,51.7954545 28.2390625,51.6990909 L27.5125,50.9763636 Z" id="Shape"></path>
                <path d="M25.38125,50.9763636 L24.6546875,51.6990909 C24.509375,51.8436364 24.509375,52.0845455 24.6546875,52.1809091 C24.703125,52.2290909 24.8,52.2772727 24.896875,52.2772727 C24.99375,52.2772727 25.090625,52.2290909 25.1390625,52.1809091 L25.865625,51.4581818 C26.0109375,51.3136364 26.0109375,51.0727273 25.865625,50.9763636 C25.7203125,50.8318182 25.478125,50.8318182 25.38125,50.9763636 Z" id="Shape"></path>
                <path d="M27.7546875,48.6154545 L27.028125,49.3381818 C26.8828125,49.4827273 26.8828125,49.7236364 27.028125,49.82 C27.0765625,49.8681818 27.1734375,49.9163636 27.2703125,49.9163636 C27.3671875,49.9163636 27.4640625,49.8681818 27.5125,49.82 L28.2390625,49.0972727 C28.384375,48.9527273 28.384375,48.7118182 28.2390625,48.6154545 C28.09375,48.4709091 27.9,48.4709091 27.7546875,48.6154545 Z" id="Shape"></path>
                <path d="M0.871875,20.6218182 C0.7265625,20.4772727 0.484375,20.4772727 0.3875,20.6218182 C0.2421875,20.7663636 0.2421875,21.0072727 0.3875,21.1036364 L1.1140625,21.8263636 C1.1625,21.8745455 1.259375,21.9227273 1.35625,21.9227273 C1.453125,21.9227273 1.55,21.8745455 1.5984375,21.8263636 C1.74375,21.6818182 1.74375,21.4409091 1.5984375,21.3445455 L0.871875,20.6218182 Z" id="Shape"></path>
                <path d="M3.971875,23.7536364 L3.2453125,23.0309091 C3.1,22.8863636 2.8578125,22.8863636 2.7609375,23.0309091 C2.615625,23.1754545 2.615625,23.4163636 2.7609375,23.5127273 L3.4875,24.2354545 C3.5359375,24.2836364 3.6328125,24.3318182 3.7296875,24.3318182 C3.8265625,24.3318182 3.9234375,24.2836364 3.971875,24.2354545 C4.1171875,24.0909091 4.1171875,23.8981818 3.971875,23.7536364 Z" id="Shape"></path>
                <path d="M1.065625,23.0309091 L0.3390625,23.7536364 C0.19375,23.8981818 0.19375,24.1390909 0.3390625,24.2354545 C0.3875,24.2836364 0.484375,24.3318182 0.58125,24.3318182 C0.678125,24.3318182 0.775,24.2836364 0.8234375,24.2354545 L1.55,23.5127273 C1.6953125,23.3681818 1.6953125,23.1272727 1.55,23.0309091 C1.453125,22.8863636 1.2109375,22.8863636 1.065625,23.0309091 Z" id="Shape"></path>
                <path d="M3.003125,21.9709091 C3.1,21.9709091 3.196875,21.9227273 3.2453125,21.8745455 L3.971875,21.1518182 C4.1171875,21.0072727 4.1171875,20.7663636 3.971875,20.67 C3.8265625,20.5254545 3.584375,20.5254545 3.4875,20.67 L2.7609375,21.3927273 C2.615625,21.5372727 2.615625,21.7781818 2.7609375,21.8745455 C2.809375,21.9709091 2.90625,21.9709091 3.003125,21.9709091 Z" id="Shape"></path>
                <path d="M12.2546875,44.9536364 L12.2546875,39.6054545 C12.2546875,39.4127273 12.109375,39.2681818 11.915625,39.2681818 L4.2625,39.2681818 C4.06875,39.2681818 3.9234375,39.4127273 3.9234375,39.6054545 L3.9234375,44.9536364 C3.9234375,45.1463636 4.06875,45.2909091 4.2625,45.2909091 L11.915625,45.2909091 C12.109375,45.3390909 12.2546875,45.1463636 12.2546875,44.9536364 Z M11.528125,44.6163636 L4.6015625,44.6163636 L4.6015625,39.9427273 L11.528125,39.9427273 L11.528125,44.6163636 Z" id="Shape"></path>
                <path d="M23.0078125,32.2818182 L15.3546875,32.2818182 C15.1609375,32.2818182 15.015625,32.4263636 15.015625,32.6190909 L15.015625,44.9536364 C15.015625,45.1463636 15.1609375,45.2909091 15.3546875,45.2909091 L23.0078125,45.2909091 C23.2015625,45.2909091 23.346875,45.1463636 23.346875,44.9536364 L23.346875,32.6190909 C23.346875,32.4263636 23.2015625,32.2818182 23.0078125,32.2818182 Z M22.6203125,44.6163636 L15.69375,44.6163636 L15.69375,33.0045455 L22.6203125,33.0045455 L22.6203125,44.6163636 Z" id="Shape"></path>
                <path d="M34.1,30.2581818 L26.446875,30.2581818 C26.253125,30.2581818 26.1078125,30.4027273 26.1078125,30.5954545 L26.1078125,44.9536364 C26.1078125,45.1463636 26.253125,45.2909091 26.446875,45.2909091 L34.1,45.2909091 C34.29375,45.2909091 34.4390625,45.1463636 34.4390625,44.9536364 L34.4390625,30.6436364 C34.4390625,30.4509091 34.29375,30.2581818 34.1,30.2581818 Z M33.7125,44.6163636 L26.7859375,44.6163636 L26.7859375,30.9809091 L33.7125,30.9809091 L33.7125,44.6163636 Z" id="Shape"></path>
                <path d="M45.53125,44.9536364 L45.53125,23.7536364 C45.53125,23.5609091 45.3859375,23.4163636 45.1921875,23.4163636 L37.5390625,23.4163636 C37.3453125,23.4163636 37.2,23.5609091 37.2,23.7536364 L37.2,45.0018182 C37.2,45.1945455 37.3453125,45.3390909 37.5390625,45.3390909 L45.1921875,45.3390909 C45.3859375,45.3390909 45.53125,45.1463636 45.53125,44.9536364 Z M44.8046875,44.6163636 L37.878125,44.6163636 L37.878125,24.0909091 L44.8046875,24.0909091 L44.8046875,44.6163636 Z" id="Shape"></path>
                <path d="M56.284375,18.7427273 L48.63125,18.7427273 C48.4375,18.7427273 48.2921875,18.8872727 48.2921875,19.08 L48.2921875,44.9536364 C48.2921875,45.1463636 48.4375,45.2909091 48.63125,45.2909091 L56.284375,45.2909091 C56.478125,45.2909091 56.6234375,45.1463636 56.6234375,44.9536364 L56.6234375,19.08 C56.6234375,18.8872727 56.478125,18.7427273 56.284375,18.7427273 Z M55.896875,44.6163636 L48.9703125,44.6163636 L48.9703125,19.4172727 L55.896875,19.4172727 L55.896875,44.6163636 Z" id="Shape"></path>
                <path d="M42.528125,17.7309091 C42.5765625,17.7790909 42.6734375,17.8272727 42.7703125,17.8272727 C42.8671875,17.8272727 42.9640625,17.7790909 43.0125,17.7309091 L51.828125,8.96181818 C52.215625,9.25090909 52.7484375,9.44363636 53.2328125,9.44363636 C54.540625,9.44363636 55.6546875,8.38363636 55.6546875,7.03454545 C55.6546875,5.73363636 54.5890625,4.62545455 53.2328125,4.62545455 C51.925,4.62545455 50.8109375,5.68545455 50.8109375,7.03454545 C50.8109375,7.56454545 51.0046875,8.04636364 51.2953125,8.43181818 L42.7703125,16.96 L39.0890625,13.2981818 C39.3796875,12.8645455 39.5734375,12.3827273 39.5734375,11.9009091 C39.5734375,10.6 38.5078125,9.49181818 37.1515625,9.49181818 C35.84375,9.49181818 34.7296875,10.5518182 34.7296875,11.9009091 C34.7296875,12.4309091 34.9234375,12.9127273 35.2140625,13.2981818 L24.0734375,24.38 L19.8109375,20.14 C20.1015625,19.7545455 20.2953125,19.2727273 20.2953125,18.7427273 C20.2953125,17.4418182 19.2296875,16.3336364 17.8734375,16.3336364 C16.565625,16.3336364 15.4515625,17.3936364 15.4515625,18.7427273 C15.4515625,19.2245455 15.596875,19.7063636 15.8875,20.14 L8.621875,27.3672727 C8.1859375,27.0781818 7.7015625,26.8854545 7.16875,26.8854545 C5.8609375,26.8854545 4.746875,27.9454545 4.746875,29.2945455 C4.746875,30.5954545 5.8125,31.7036364 7.16875,31.7036364 C8.4765625,31.7036364 9.590625,30.6436364 9.590625,29.2945455 C9.590625,28.7645455 9.4453125,28.2827273 9.10625,27.8972727 L16.371875,20.67 C16.8078125,20.9590909 17.2921875,21.1518182 17.825,21.1518182 C18.3578125,21.1518182 18.8421875,20.9590909 19.278125,20.67 L23.7828125,25.1509091 C23.83125,25.1990909 23.928125,25.2472727 24.025,25.2472727 C24.121875,25.2472727 24.21875,25.1990909 24.2671875,25.1509091 L35.65,13.8281818 C36.0375,14.1172727 36.5703125,14.31 37.0546875,14.31 C37.5875,14.31 38.071875,14.1172727 38.459375,13.8281818 L42.528125,17.7309091 Z M53.28125,5.34818182 C54.2015625,5.34818182 54.9765625,6.11909091 54.9765625,7.03454545 C54.9765625,7.95 54.2015625,8.72090909 53.28125,8.72090909 C52.8453125,8.72090909 52.409375,8.52818182 52.0703125,8.23909091 C51.73125,7.90181818 51.5859375,7.51636364 51.5859375,7.03454545 C51.5859375,6.11909091 52.3125,5.34818182 53.28125,5.34818182 Z M7.265625,30.9327273 C6.3453125,30.9327273 5.5703125,30.1618182 5.5703125,29.2463636 C5.5703125,28.3309091 6.3453125,27.56 7.265625,27.56 C7.7015625,27.56 8.1375,27.7527273 8.4765625,28.0418182 C8.815625,28.3790909 8.9609375,28.7645455 8.9609375,29.2463636 C8.9609375,30.21 8.1859375,30.9327273 7.265625,30.9327273 Z M19.084375,19.9472727 C18.4546875,20.6218182 17.2921875,20.5736364 16.6625,19.9472727 C16.371875,19.61 16.178125,19.2245455 16.178125,18.7909091 C16.178125,17.8754545 16.953125,17.1045455 17.8734375,17.1045455 C18.79375,17.1045455 19.56875,17.8754545 19.56875,18.7909091 C19.56875,19.1763636 19.4234375,19.61 19.084375,19.9472727 Z M38.3625,13.1054545 C38.3625,13.1054545 38.3625,13.1054545 38.3625,13.1054545 C37.7328125,13.7318182 36.61875,13.7318182 35.9890625,13.1054545 C35.65,12.7681818 35.5046875,12.3827273 35.5046875,11.9009091 C35.5046875,10.9854545 36.2796875,10.2145455 37.2,10.2145455 C38.1203125,10.2145455 38.8953125,10.9854545 38.8953125,11.9009091 C38.846875,12.3345455 38.7015625,12.7681818 38.3625,13.1054545 C38.3625,13.1054545 38.3625,13.1054545 38.3625,13.1054545 Z" id="Shape"></path>
            </g>
        </g>
    </g>
</svg>