<?xml version="1.0" encoding="UTF-8"?>
<svg xmlns="http://www.w3.org/2000/svg" xmlns:xlink="http://www.w3.org/1999/xlink" viewBox="0 0 100 100" width="100px" height="100px">
<g id="surface118661">
<path style=" stroke:none;fill-rule:nonzero;fill:rgb(74.117649%,74.117649%,74.117649%);fill-opacity:1;" d="M 18 8 C 12.5 8 8 12.5 8 18 L 8 82 C 8 87.5 12.5 92 18 92 L 82 92 C 87.5 92 92 87.5 92 82 L 92 18 C 92 12.5 87.5 8 82 8 Z M 18 12 L 82 12 C 85.335938 12 88 14.664062 88 18 L 88 82 C 88 85.335938 85.335938 88 82 88 L 18 88 C 14.664062 88 12 85.335938 12 82 L 12 18 C 12 14.664062 14.664062 12 18 12 Z M 24 18 C 20.710938 18 18 20.710938 18 24 L 18 72 C 18 75.289062 20.710938 78 24 78 L 38 78 C 41.289062 78 44 75.289062 44 72 L 44 24 C 44 20.710938 41.289062 18 38 18 Z M 62 18 C 58.710938 18 56 20.710938 56 24 L 56 48 C 56 51.289062 58.710938 54 62 54 L 76 54 C 79.289062 54 82 51.289062 82 48 L 82 24 C 82 20.710938 79.289062 18 76 18 Z M 24 22 L 38 22 C 39.128906 22 40 22.871094 40 24 L 40 72 C 40 73.128906 39.128906 74 38 74 L 24 74 C 22.871094 74 22 73.128906 22 72 L 22 24 C 22 22.871094 22.871094 22 24 22 Z M 62 22 L 76 22 C 77.128906 22 78 22.871094 78 24 L 78 48 C 78 49.128906 77.128906 50 76 50 L 62 50 C 60.871094 50 60 49.128906 60 48 L 60 24 C 60 22.871094 60.871094 22 62 22 Z M 62 22 "/>
</g>
</svg>
